<svg width="93" height="26" viewBox="0 0 93 26" fill="none" xmlns="http://www.w3.org/2000/svg">
<g clip-path="url(#clip0_8_2)">
<path d="M7.392 24.12C6.464 24.12 5.416 24.04 4.248 23.88C3.608 23.8 3.168 23.632 2.928 23.376C2.688 23.12 2.584 22.704 2.616 22.128C2.728 20.544 2.992 18.592 3.408 16.272C3.824 13.936 4.328 11.688 4.92 9.528C5.032 9.128 5.256 8.848 5.592 8.688C5.928 8.528 6.368 8.448 6.912 8.448C7.888 8.448 8.376 8.72 8.376 9.264C8.376 9.488 8.328 9.744 8.232 10.032C7.816 11.312 7.4 13.032 6.984 15.192C6.568 17.336 6.272 19.384 6.096 21.336C6.576 21.384 7.12 21.408 7.728 21.408C10.528 21.408 12.616 20.56 13.992 18.864C15.384 17.168 16.08 14.904 16.08 12.072C16.08 10.168 15.536 8.696 14.448 7.656C13.36 6.616 11.824 6.096 9.84 6.096C8.56 6.096 7.288 6.296 6.024 6.696C4.776 7.096 3.648 7.624 2.64 8.28C2.432 8.424 2.208 8.496 1.968 8.496C1.696 8.496 1.48 8.384 1.32 8.16C1.16 7.92 1.08 7.632 1.08 7.296C1.08 6.912 1.144 6.6 1.272 6.36C1.4 6.104 1.616 5.872 1.92 5.664C3.024 4.912 4.32 4.344 5.808 3.96C7.296 3.56 8.728 3.36 10.104 3.36C12.056 3.36 13.744 3.704 15.168 4.392C16.592 5.064 17.688 6.056 18.456 7.368C19.224 8.68 19.608 10.264 19.608 12.12C19.608 14.536 19.128 16.648 18.168 18.456C17.208 20.248 15.808 21.64 13.968 22.632C12.128 23.624 9.936 24.12 7.392 24.12ZM22.6841 24.12C22.0761 24.12 21.6441 23.8 21.3881 23.16C21.1481 22.52 21.0281 21.496 21.0281 20.088C21.0281 18.008 21.3241 16.032 21.9161 14.16C22.0601 13.696 22.2921 13.36 22.6121 13.152C22.9481 12.928 23.4121 12.816 24.0041 12.816C24.3241 12.816 24.5481 12.856 24.6761 12.936C24.8041 13.016 24.8681 13.168 24.8681 13.392C24.8681 13.648 24.7481 14.224 24.5081 15.12C24.3481 15.76 24.2201 16.32 24.1241 16.8C24.0281 17.28 23.9481 17.872 23.8841 18.576C24.4121 17.2 25.0041 16.08 25.6601 15.216C26.3161 14.352 26.9561 13.736 27.5801 13.368C28.2201 13 28.8041 12.816 29.3321 12.816C30.3721 12.816 30.8921 13.336 30.8921 14.376C30.8921 14.584 30.8201 15.088 30.6761 15.888C30.5481 16.528 30.4841 16.928 30.4841 17.088C30.4841 17.648 30.6841 17.928 31.0841 17.928C31.5321 17.928 32.1081 17.576 32.8121 16.872C33.0201 16.664 33.2361 16.56 33.4601 16.56C33.6681 16.56 33.8281 16.656 33.9401 16.848C34.0681 17.024 34.1321 17.264 34.1321 17.568C34.1321 18.16 33.9721 18.624 33.6521 18.96C33.2041 19.424 32.6761 19.824 32.0681 20.16C31.4761 20.48 30.8441 20.64 30.1721 20.64C29.3241 20.64 28.6761 20.424 28.2281 19.992C27.7961 19.56 27.5801 18.976 27.5801 18.24C27.5801 18 27.6041 17.76 27.6521 17.52C27.6841 17.2 27.7001 16.984 27.7001 16.872C27.7001 16.616 27.6121 16.488 27.4361 16.488C27.1961 16.488 26.8761 16.76 26.4761 17.304C26.0921 17.832 25.7081 18.536 25.3241 19.416C24.9401 20.296 24.6281 21.224 24.3881 22.2C24.2121 22.952 24.0041 23.464 23.7641 23.736C23.5401 23.992 23.1801 24.12 22.6841 24.12ZM35.046 11.232C34.374 11.232 33.87 11.08 33.534 10.776C33.198 10.456 33.03 10.016 33.03 9.456C33.03 8.896 33.246 8.432 33.678 8.064C34.126 7.68 34.678 7.488 35.334 7.488C35.926 7.488 36.406 7.632 36.774 7.92C37.142 8.208 37.326 8.616 37.326 9.144C37.326 9.784 37.118 10.296 36.702 10.68C36.286 11.048 35.734 11.232 35.046 11.232ZM34.854 24.12C33.814 24.12 33.054 23.752 32.574 23.016C32.11 22.28 31.878 21.304 31.878 20.088C31.878 19.368 31.966 18.448 32.142 17.328C32.334 16.192 32.574 15.136 32.862 14.16C33.006 13.648 33.198 13.296 33.438 13.104C33.678 12.912 34.062 12.816 34.59 12.816C35.406 12.816 35.814 13.088 35.814 13.632C35.814 14.032 35.662 14.96 35.358 16.416C34.974 18.176 34.782 19.368 34.782 19.992C34.782 20.472 34.846 20.84 34.974 21.096C35.102 21.352 35.318 21.48 35.622 21.48C35.91 21.48 36.27 21.28 36.702 20.88C37.134 20.48 37.71 19.848 38.43 18.984C38.622 18.76 38.838 18.648 39.078 18.648C39.286 18.648 39.446 18.744 39.558 18.936C39.686 19.128 39.75 19.392 39.75 19.728C39.75 20.368 39.598 20.864 39.294 21.216C37.71 23.152 36.23 24.12 34.854 24.12ZM50.5763 16.632C50.7843 16.632 50.9443 16.736 51.0563 16.944C51.1683 17.152 51.2243 17.416 51.2243 17.736C51.2243 18.136 51.1683 18.448 51.0563 18.672C50.9443 18.88 50.7683 19.024 50.5283 19.104C49.5683 19.44 48.5123 19.632 47.3603 19.68C47.0403 21.008 46.4323 22.08 45.5363 22.896C44.6563 23.712 43.6803 24.12 42.6083 24.12C40.9923 24.12 39.8163 23.504 39.0803 22.272C38.3443 21.04 37.9763 19.256 37.9763 16.92C37.9763 14.856 38.2323 12.616 38.7443 10.2C39.2563 7.768 40.0003 5.704 40.9763 4.008C41.9683 2.296 43.1443 1.44 44.5043 1.44C45.2403 1.44 45.8323 1.76 46.2803 2.4C46.7283 3.024 46.9523 3.84 46.9523 4.848C46.9523 6.16 46.7043 7.464 46.2083 8.76C45.7123 10.056 44.8883 11.416 43.7363 12.84C44.8083 12.92 45.6803 13.368 46.3523 14.184C47.0243 14.984 47.4243 15.976 47.5523 17.16C48.3043 17.112 49.2003 16.952 50.2403 16.68C50.3363 16.648 50.4483 16.632 50.5763 16.632ZM43.9523 3.816C43.6323 3.816 43.2803 4.296 42.8963 5.256C42.5283 6.2 42.1843 7.488 41.8643 9.12C41.5443 10.752 41.3043 12.536 41.1443 14.472C42.2003 12.536 43.0403 10.832 43.6643 9.36C44.3043 7.872 44.6243 6.552 44.6243 5.4C44.6243 4.888 44.5603 4.496 44.4323 4.224C44.3203 3.952 44.1603 3.816 43.9523 3.816ZM42.7043 21.576C43.2003 21.576 43.6403 21.368 44.0243 20.952C44.4083 20.536 44.6643 19.936 44.7923 19.152C44.2963 18.816 43.9123 18.376 43.6403 17.832C43.3843 17.288 43.2563 16.712 43.2563 16.104C43.2563 15.88 43.2883 15.576 43.3523 15.192H43.2803C42.6243 15.192 42.0723 15.52 41.6243 16.176C41.1923 16.816 40.9763 17.68 40.9763 18.768C40.9763 19.68 41.1443 20.376 41.4803 20.856C41.8323 21.336 42.2403 21.576 42.7043 21.576ZM61.92 16.632C62.128 16.632 62.288 16.736 62.4 16.944C62.512 17.152 62.568 17.416 62.568 17.736C62.568 18.136 62.512 18.448 62.4 18.672C62.288 18.88 62.112 19.024 61.872 19.104C60.912 19.44 59.856 19.632 58.704 19.68C58.384 21.008 57.776 22.08 56.88 22.896C56 23.712 55.024 24.12 53.952 24.12C52.336 24.12 51.16 23.504 50.424 22.272C49.688 21.04 49.32 19.256 49.32 16.92C49.32 14.856 49.576 12.616 50.088 10.2C50.6 7.768 51.344 5.704 52.32 4.008C53.312 2.296 54.488 1.44 55.848 1.44C56.584 1.44 57.176 1.76 57.624 2.4C58.072 3.024 58.296 3.84 58.296 4.848C58.296 6.16 58.048 7.464 57.552 8.76C57.056 10.056 56.232 11.416 55.08 12.84C56.152 12.92 57.024 13.368 57.696 14.184C58.368 14.984 58.768 15.976 58.896 17.16C59.648 17.112 60.544 16.952 61.584 16.68C61.68 16.648 61.792 16.632 61.92 16.632ZM55.296 3.816C54.976 3.816 54.624 4.296 54.24 5.256C53.872 6.2 53.528 7.488 53.208 9.12C52.888 10.752 52.648 12.536 52.488 14.472C53.544 12.536 54.384 10.832 55.008 9.36C55.648 7.872 55.968 6.552 55.968 5.4C55.968 4.888 55.904 4.496 55.776 4.224C55.664 3.952 55.504 3.816 55.296 3.816ZM54.048 21.576C54.544 21.576 54.984 21.368 55.368 20.952C55.752 20.536 56.008 19.936 56.136 19.152C55.64 18.816 55.256 18.376 54.984 17.832C54.728 17.288 54.6 16.712 54.6 16.104C54.6 15.88 54.632 15.576 54.696 15.192H54.624C53.968 15.192 53.416 15.52 52.968 16.176C52.536 16.816 52.32 17.68 52.32 18.768C52.32 19.68 52.488 20.376 52.824 20.856C53.176 21.336 53.584 21.576 54.048 21.576ZM73.2638 16.632C73.4718 16.632 73.6318 16.736 73.7438 16.944C73.8558 17.152 73.9118 17.416 73.9118 17.736C73.9118 18.136 73.8558 18.448 73.7438 18.672C73.6318 18.88 73.4558 19.024 73.2158 19.104C72.2558 19.44 71.1998 19.632 70.0478 19.68C69.7278 21.008 69.1198 22.08 68.2238 22.896C67.3438 23.712 66.3678 24.12 65.2958 24.12C63.6798 24.12 62.5038 23.504 61.7678 22.272C61.0318 21.04 60.6638 19.256 60.6638 16.92C60.6638 14.856 60.9198 12.616 61.4318 10.2C61.9438 7.768 62.6878 5.704 63.6638 4.008C64.6558 2.296 65.8318 1.44 67.1918 1.44C67.9278 1.44 68.5198 1.76 68.9678 2.4C69.4158 3.024 69.6398 3.84 69.6398 4.848C69.6398 6.16 69.3918 7.464 68.8958 8.76C68.3998 10.056 67.5758 11.416 66.4238 12.84C67.4958 12.92 68.3678 13.368 69.0398 14.184C69.7118 14.984 70.1118 15.976 70.2398 17.16C70.9918 17.112 71.8878 16.952 72.9278 16.68C73.0238 16.648 73.1358 16.632 73.2638 16.632ZM66.6398 3.816C66.3198 3.816 65.9678 4.296 65.5838 5.256C65.2158 6.2 64.8718 7.488 64.5518 9.12C64.2318 10.752 63.9918 12.536 63.8318 14.472C64.8878 12.536 65.7278 10.832 66.3518 9.36C66.9918 7.872 67.3118 6.552 67.3118 5.4C67.3118 4.888 67.2478 4.496 67.1198 4.224C67.0078 3.952 66.8478 3.816 66.6398 3.816ZM65.3918 21.576C65.8878 21.576 66.3278 21.368 66.7118 20.952C67.0958 20.536 67.3518 19.936 67.4798 19.152C66.9838 18.816 66.5998 18.376 66.3278 17.832C66.0718 17.288 65.9438 16.712 65.9438 16.104C65.9438 15.88 65.9758 15.576 66.0398 15.192H65.9678C65.3118 15.192 64.7598 15.52 64.3118 16.176C63.8798 16.816 63.6638 17.68 63.6638 18.768C63.6638 19.68 63.8318 20.376 64.1678 20.856C64.5198 21.336 64.9278 21.576 65.3918 21.576ZM84.0795 16.632C84.2875 16.632 84.4475 16.736 84.5595 16.944C84.6715 17.152 84.7275 17.416 84.7275 17.736C84.7275 18.504 84.4955 18.96 84.0315 19.104C83.0715 19.44 82.0155 19.632 80.8635 19.68C80.5595 21.024 79.9595 22.104 79.0635 22.92C78.1675 23.72 77.1515 24.12 76.0155 24.12C75.0555 24.12 74.2315 23.888 73.5435 23.424C72.8715 22.96 72.3595 22.344 72.0075 21.576C71.6555 20.808 71.4795 19.976 71.4795 19.08C71.4795 17.864 71.7115 16.784 72.1755 15.84C72.6395 14.88 73.2795 14.136 74.0955 13.608C74.9115 13.064 75.8155 12.792 76.8075 12.792C78.0235 12.792 78.9995 13.216 79.7355 14.064C80.4875 14.896 80.9275 15.928 81.0555 17.16C81.8075 17.112 82.7035 16.952 83.7435 16.68C83.8715 16.648 83.9835 16.632 84.0795 16.632ZM76.2075 21.576C76.7195 21.576 77.1595 21.368 77.5275 20.952C77.9115 20.536 78.1675 19.936 78.2955 19.152C77.7995 18.816 77.4155 18.376 77.1435 17.832C76.8875 17.288 76.7595 16.712 76.7595 16.104C76.7595 15.848 76.7835 15.592 76.8315 15.336H76.7115C76.0715 15.336 75.5355 15.648 75.1035 16.272C74.6875 16.88 74.4795 17.744 74.4795 18.864C74.4795 19.744 74.6475 20.416 74.9835 20.88C75.3355 21.344 75.7435 21.576 76.2075 21.576ZM85.1636 24.12C84.4116 24.12 83.8036 23.816 83.3396 23.208C82.8916 22.584 82.6676 21.728 82.6676 20.64C82.6676 19.44 82.7476 18.344 82.9076 17.352C83.0676 16.344 83.3316 15.28 83.6996 14.16C83.8596 13.68 84.0836 13.336 84.3716 13.128C84.6596 12.92 85.1156 12.816 85.7396 12.816C86.0916 12.816 86.3316 12.872 86.4596 12.984C86.6036 13.096 86.6756 13.264 86.6756 13.488C86.6756 13.616 86.5876 14.048 86.4116 14.784C86.2516 15.376 86.1236 15.912 86.0276 16.392C85.7076 18.072 85.5476 19.192 85.5476 19.752C85.5476 20.088 85.5876 20.328 85.6676 20.472C85.7476 20.6 85.8756 20.664 86.0516 20.664C86.2916 20.664 86.5956 20.424 86.9636 19.944C87.3316 19.448 87.7156 18.712 88.1156 17.736C88.5316 16.744 88.9236 15.552 89.2916 14.16C89.4196 13.68 89.6116 13.336 89.8676 13.128C90.1396 12.92 90.5396 12.816 91.0676 12.816C91.4196 12.816 91.6676 12.912 91.8116 13.104C91.9716 13.28 92.0516 13.552 92.0516 13.92C92.0516 14.32 92.0196 14.768 91.9556 15.264C91.8916 15.744 91.8196 16.24 91.7396 16.752C91.5796 17.776 91.4516 18.712 91.3556 19.56C91.2596 20.392 91.2116 21.344 91.2116 22.416C91.2116 23.024 91.0836 23.464 90.8276 23.736C90.5876 23.992 90.1876 24.12 89.6276 24.12C89.0356 24.12 88.6196 23.968 88.3796 23.664C88.1556 23.344 88.0436 22.736 88.0436 21.84C88.0436 21.664 88.0596 21.272 88.0916 20.664C87.8196 21.784 87.4116 22.64 86.8676 23.232C86.3396 23.824 85.7716 24.12 85.1636 24.12Z" fill="black"/>
</g>
<defs>
<clipPath id="clip0_8_2">
<rect width="93" height="26" fill="white"/>
</clipPath>
</defs>
</svg>
